<?xml version="1.0" encoding="UTF-8" standalone="no"?>
<!-- Created with Inkscape (http://www.inkscape.org/) -->

<svg width="100mm" height="100mm" viewBox="0 0 100 100" version="1.1" id="svg1" xml:space="preserve"
    xmlns="http://www.w3.org/2000/svg"><g id="layer2"><g
       id="g2"
       transform="matrix(1.2783717,0,0,1.2783717,-13.379826,-139.98107)"><path
         style="fill:none;stroke:#1ab876;stroke-width:3;stroke-linecap:round;stroke-linejoin:round;stroke-dasharray:none;stroke-opacity:1"
         d="m 61.191969,127.7221 c 0,0 -5.864706,-7.01027 -12.04592,-7.01027 -6.181214,0 -10.748069,2.10229 -11.526518,6.96657 -0.778449,4.86428 3.336836,6.8374 11.019861,11.27319 3.749934,2.16503 7.042384,4.7003 10.774761,7.88678 3.732377,3.18649 6.121269,7.6341 6.121269,14.87511 0,7.24101 -5.434827,14.79822 -15.65359,14.79822 -10.218763,0 -16.260138,-7.71468 -16.260138,-14.71952 0,-7.00484 2.536282,-10.56832 7.117294,-14.48395"
         id="path2"
         /><g
         id="g1"
         transform="translate(0.31403927,0.52916663)"
         style="stroke:#248dfb;stroke-opacity:1"><path
           style="fill:none;stroke:#248dfb;stroke-width:1.5;stroke-linecap:round;stroke-linejoin:round;stroke-dasharray:none;stroke-opacity:1"
           d="m 49.257123,160.61279 8.067542,-9.49789"
           id="path6"
           /><path
           style="fill:none;stroke:#248dfb;stroke-width:2.5;stroke-linecap:round;stroke-linejoin:round;stroke-dasharray:none;stroke-opacity:1"
           d="M 48.842553,160.30131 43.8189,155.23855"
           id="path1"/></g></g></g></svg>
